<mxfile host="www.draw.io" modified="2019-11-26T00:24:44.573Z" agent="Mozilla/5.0 (Windows NT 10.0; Win64; x64; rv:71.0) Gecko/20100101 Firefox/71.0" etag="uP0kwJ13t6nai0gNlBDH" version="12.3.0" type="github" pages="1">
  <diagram id="TM56AApIJGsK2dMGK2SN" name="Page-1">
    <mxGraphModel dx="768" dy="470" grid="1" gridSize="10" guides="1" tooltips="1" connect="1" arrows="1" fold="1" page="1" pageScale="1" pageWidth="850" pageHeight="1100" math="0" shadow="0">
      <root>
        <mxCell id="0"/>
        <mxCell id="1" parent="0"/>
        <mxCell id="xH67i2G3ats3fvDuuUHO-1" value="UCLA" style="rounded=0;whiteSpace=wrap;html=1;" parent="1" vertex="1">
          <mxGeometry x="290" y="40" width="120" height="60" as="geometry"/>
        </mxCell>
        <mxCell id="xH67i2G3ats3fvDuuUHO-2" value="Geography" style="rounded=0;whiteSpace=wrap;html=1;" parent="1" vertex="1">
          <mxGeometry x="80" y="230" width="120" height="60" as="geometry"/>
        </mxCell>
        <mxCell id="xH67i2G3ats3fvDuuUHO-4" value="DSC" style="rounded=0;whiteSpace=wrap;html=1;" parent="1" vertex="1">
          <mxGeometry x="520" y="220" width="120" height="60" as="geometry"/>
        </mxCell>
        <mxCell id="xH67i2G3ats3fvDuuUHO-6" value="&lt;div&gt;research support&lt;/div&gt;&lt;div&gt;consultation&lt;/div&gt;" style="endArrow=classic;html=1;exitX=0.5;exitY=1;exitDx=0;exitDy=0;entryX=0;entryY=0.5;entryDx=0;entryDy=0;" parent="1" source="xH67i2G3ats3fvDuuUHO-1" target="xH67i2G3ats3fvDuuUHO-4" edge="1">
          <mxGeometry width="50" height="50" relative="1" as="geometry">
            <mxPoint x="180" y="320" as="sourcePoint"/>
            <mxPoint x="230" y="270" as="targetPoint"/>
          </mxGeometry>
        </mxCell>
        <mxCell id="xH67i2G3ats3fvDuuUHO-7" value="&lt;div&gt;Provides GIS Courses&lt;/div&gt;" style="endArrow=classic;html=1;entryX=1;entryY=0.5;entryDx=0;entryDy=0;exitX=0.5;exitY=1;exitDx=0;exitDy=0;" parent="1" source="xH67i2G3ats3fvDuuUHO-1" target="xH67i2G3ats3fvDuuUHO-2" edge="1">
          <mxGeometry width="50" height="50" relative="1" as="geometry">
            <mxPoint x="180" y="320" as="sourcePoint"/>
            <mxPoint x="230" y="270" as="targetPoint"/>
          </mxGeometry>
        </mxCell>
      </root>
    </mxGraphModel>
  </diagram>
</mxfile>
